<?xml version="1.0" encoding="UTF-8" standalone="no"?>
<svg width="512" height="512" viewBox="0 0 512 512" xmlns="http://www.w3.org/2000/svg">
  <rect width="512" height="512" fill="#3B82F6" rx="100" ry="100" />
  <g fill="#FFFFFF">
    <!-- Trophy -->
    <path d="M256 60 C 310 60, 340 90, 340 120 L 340 200 C 340 240, 300 270, 256 270 C 212 270, 172 240, 172 200 L 172 120 C 172 90, 202 60, 256 60 Z" />
    <rect x="230" y="270" width="52" height="70" rx="5" ry="5" />
    <rect x="190" y="340" width="132" height="20" rx="5" ry="5" />
    
    <!-- Tournament Bracket -->
    <rect x="120" y="380" width="272" height="10" rx="5" ry="5" />
    <rect x="120" y="380" width="10" height="60" rx="5" ry="5" />
    <rect x="382" y="380" width="10" height="60" rx="5" ry="5" />
    <rect x="120" y="440" width="272" height="10" rx="5" ry="5" />
    <rect x="180" y="410" width="10" height="30" rx="5" ry="5" />
    <rect x="322" y="410" width="10" height="30" rx="5" ry="5" />
    <rect x="180" y="410" width="152" height="10" rx="5" ry="5" />
    
    <!-- Stars -->
    <path d="M140 150 L 150 170 L 130 170 Z" />
    <path d="M370 150 L 380 170 L 360 170 Z" />
    <path d="M140 200 L 150 220 L 130 220 Z" />
    <path d="M370 200 L 380 220 L 360 220 Z" />
  </g>
</svg>
